<svg width="191" height="129" viewBox="0 0 191 129" fill="none" xmlns="http://www.w3.org/2000/svg">
<path opacity="0.5" fill-rule="evenodd" clip-rule="evenodd" d="M157.574 123H50.2311C50.2311 123 -12.4338 77.7733 4.39291 54.0003C21.2196 30.2274 36.8858 32.5467 46.1695 34.866C80.9833 47.6222 75.7612 27.908 94.3286 14.572C112.896 1.2359 202.832 25.5887 189.486 81.8321C181.363 117.202 157.574 123 157.574 123Z" fill="#E7EDF2"/>
<path d="M137.155 12.5565C137.155 12.5456 137.155 12.5333 137.157 12.5224C137.176 12.3655 137.319 12.2536 137.476 12.2714C146.619 13.3559 155.401 16.4484 163.574 21.4658C171.59 26.3863 178.631 32.9083 184.502 40.8518C184.596 40.9786 184.569 41.1587 184.44 41.2528C184.312 41.3469 184.131 41.3197 184.036 41.1914C172.292 25.2936 155.296 14.9615 137.409 12.8402C137.264 12.8225 137.155 12.6997 137.155 12.5565Z" fill="#24272C" fill-opacity="0.97"/>
<path d="M124.566 16.0743C124.566 15.9284 124.678 15.8029 124.827 15.7892C134.126 14.9107 143.301 16.2912 152.101 19.8926C160.598 23.3726 168.281 28.72 174.933 35.7891C175.042 35.905 175.036 36.0865 174.92 36.1942C174.803 36.302 174.621 36.2965 174.512 36.1806C161.05 21.8761 142.96 14.6515 124.882 16.3608C124.724 16.3758 124.583 16.2599 124.568 16.103C124.568 16.0934 124.566 16.0839 124.566 16.0743Z" fill="#24272C" fill-opacity="0.97"/>
<path d="M175.643 40.0776C175.643 40.0122 175.665 39.9494 175.708 39.8976L177.343 37.8936C177.41 37.8118 177.517 37.7722 177.623 37.7927C177.727 37.8131 177.812 37.8895 177.844 37.9905L178.605 40.5005C178.634 40.5947 178.612 40.6983 178.546 40.772C178.48 40.8457 178.38 40.8811 178.283 40.8648C177.073 40.6629 175.874 40.3573 175.861 40.3546C175.767 40.33 175.69 40.2591 175.66 40.1663C175.647 40.139 175.643 40.1076 175.643 40.0776ZM177.447 38.6739L176.442 39.9071C176.8 39.9917 177.339 40.1117 177.917 40.2195L177.447 38.6739Z" fill="#24272C" fill-opacity="0.97"/>
<path d="M105.944 3.41721C105.921 3.41721 105.898 3.41555 105.874 3.41054L104.11 3.05203C103.921 3.01367 103.8 2.82858 103.838 2.64015C103.876 2.45005 104.06 2.32832 104.25 2.36668L106.014 2.72519C106.203 2.76355 106.324 2.94864 106.286 3.13707C106.253 3.30216 106.107 3.41721 105.944 3.41721Z" fill="black"/>
<path d="M110.056 4.25193C110.033 4.25193 110.01 4.25027 109.987 4.24526L108.222 3.88675C108.033 3.84839 107.912 3.6633 107.95 3.47487C107.989 3.28477 108.173 3.16304 108.362 3.20139L110.126 3.55991C110.315 3.59826 110.436 3.78336 110.398 3.97179C110.363 4.13854 110.219 4.25193 110.056 4.25193Z" fill="black"/>
<path d="M106.522 6.61073C106.499 6.61073 106.476 6.60907 106.453 6.60406C106.264 6.56571 106.143 6.38062 106.181 6.19219L106.537 4.41627C106.575 4.22618 106.759 4.10445 106.948 4.1428C107.137 4.18115 107.258 4.36625 107.22 4.55468L106.864 6.32892C106.831 6.49568 106.685 6.61073 106.522 6.61073Z" fill="black"/>
<path d="M107.354 2.47499C107.33 2.47499 107.307 2.47333 107.284 2.46832C107.095 2.42997 106.974 2.24488 107.012 2.05645L107.368 0.280532C107.407 0.0904347 107.591 -0.0312951 107.779 0.00705792C107.968 0.045411 108.089 0.230506 108.051 0.418937L107.695 2.19318C107.66 2.35994 107.516 2.47499 107.354 2.47499Z" fill="black"/>
<path d="M5.14489 80.3908C5.14776 80.3891 5.1492 80.3883 5.15063 80.3874C5.31887 80.2942 5.53101 80.3565 5.62486 80.5257C11.406 91.0264 19.2341 98.0521 28.8902 101.41C29.0727 101.474 29.1698 101.672 29.1068 101.854C29.0453 102.036 28.8468 102.134 28.6643 102.069C18.8387 98.654 10.8818 91.5178 5.01426 80.8609C4.92352 80.6938 4.98119 80.4853 5.14489 80.3908Z" fill="#24272C"/>
<path d="M8.39448 78.8789C8.55818 78.7843 8.76986 78.8393 8.86861 79.0037C15.0246 89.2881 23.0988 96.0272 32.8677 99.0326C33.052 99.0899 33.1571 99.2853 33.1009 99.4698C33.0447 99.6544 32.8504 99.7588 32.6661 99.7016C22.7251 96.6434 14.518 89.8 8.27053 79.3606C8.17094 79.1947 8.22527 78.9804 8.39017 78.8813C8.3916 78.8805 8.39304 78.8797 8.39448 78.8789Z" fill="#24272C"/>
<path d="M92.8311 126C131.491 126 162.831 124.657 162.831 123C162.831 121.343 131.491 120 92.8311 120C54.1711 120 22.8311 121.343 22.8311 123C22.8311 124.657 54.1711 126 92.8311 126Z" fill="#E1E5E7"/>
<path opacity="0.1" d="M21.1935 123.296C25.2597 123.296 28.5559 122.739 28.5559 122.052C28.5559 121.365 25.2597 120.808 21.1935 120.808C17.1273 120.808 13.8311 121.365 13.8311 122.052C13.8311 122.739 17.1273 123.296 21.1935 123.296Z" fill="#979797"/>
<path d="M16.251 116.269C16.251 116.269 20.4475 116.141 21.7188 115.238C22.9901 114.336 28.1791 113.261 28.4935 114.708C28.8079 116.154 34.8033 121.897 30.0627 121.935C25.3221 121.973 19.0478 121.197 17.7847 120.426C16.5216 119.654 16.251 116.269 16.251 116.269Z" fill="#595959"/>
<path opacity="0.2" d="M30.142 121.432C25.4014 121.47 19.1271 120.693 17.864 119.922C16.9017 119.337 16.5189 117.234 16.3904 116.264H16.251C16.251 116.264 16.5244 119.652 17.7792 120.42C19.0341 121.188 25.3166 121.968 30.0573 121.929C31.4242 121.929 31.8972 121.432 31.8726 120.71C31.6812 121.15 31.159 121.424 30.142 121.432Z" fill="black"/>
<path d="M120.508 108.435C116.097 114.748 100.242 111.404 100.242 111.404L87.955 99.9043L86.3011 98.3471L89.0752 92.4539C89.0752 92.4539 89.9573 92.6965 91.4701 93.1288C99.4131 95.4358 124.23 103.129 120.508 108.435Z" fill="#EFB7B9"/>
<path opacity="0.1" d="M91.4613 93.1288C90.9188 95.0167 89.4325 97.8443 87.955 99.9043L86.3011 98.3471L89.0753 92.4539C89.0753 92.4539 89.9661 92.6965 91.4613 93.1288Z" fill="black"/>
<path opacity="0.1" d="M61.0212 71.8699C61.0212 71.8699 58.7322 76.5589 60.1391 76.2413C61.546 75.9237 61.0212 71.8699 61.0212 71.8699Z" fill="black"/>
<path d="M62.127 81.3419L96.0865 75.8147V107.972L63.8205 106.282L62.127 81.3419Z" fill="#BCBCBC"/>
<path opacity="0.05" d="M62.127 81.3419L96.0865 75.8147V107.972L63.8205 106.282L62.127 81.3419Z" fill="black"/>
<path d="M96.0874 75.8147L136.812 78.8628L134.559 106.847L96.0874 107.972V75.8147Z" fill="#BCBCBC"/>
<path opacity="0.1" d="M96.0874 75.8147L136.812 78.8628L134.559 106.847L96.0874 107.972V75.8147Z" fill="black"/>
<path d="M108.608 66L96.0874 75.8148L136.812 78.8629L143.468 68.8187L108.608 66Z" fill="#BCBCBC"/>
<path d="M49.8311 70.6227L80.4035 66.8997L96.0866 75.8146L62.1271 81.3417L49.8311 70.6227Z" fill="#BCBCBC"/>
<path d="M103.531 84.1642V128.13L87.6231 126.498L80.7033 125.792L78.5951 125.572L71.6797 124.861L62.127 123.882V81.3411L96.0821 83.6525L103.531 84.1642Z" fill="#BCBCBC"/>
<path d="M136.811 78.8613V121.738L124.061 124.186L117.86 125.377L103.531 128.129V84.1635L136.811 78.8613Z" fill="#BCBCBC"/>
<path opacity="0.05" d="M136.811 78.8613V121.738L124.061 124.186L117.86 125.377L103.531 128.129V84.1635L136.811 78.8613Z" fill="black"/>
<path d="M49.8311 90.5956L62.127 81.3411L103.531 84.1642L97.4361 94.4333L49.8311 90.5956Z" fill="#BCBCBC"/>
<path opacity="0.1" d="M49.8311 90.5956L62.127 81.3411L103.531 84.1642L97.4361 94.4333L49.8311 90.5956Z" fill="white"/>
<path d="M136.811 78.8613L103.531 84.1635L114.363 93.868L150.011 87.8865L136.811 78.8613Z" fill="#BCBCBC"/>
<path opacity="0.1" d="M136.811 78.8613L103.531 84.1635L114.363 93.868L150.011 87.8865L136.811 78.8613Z" fill="white"/>
<path opacity="0.1" d="M124.062 124.186L117.861 125.377V116.215L123.669 114.75L124.062 124.186Z" fill="white"/>
<path opacity="0.1" d="M87.6235 120.437V126.498L80.7037 125.792V120.437H87.6235Z" fill="white"/>
<path opacity="0.1" d="M78.5954 122.347V125.571L71.6801 124.861V122.347H78.5954Z" fill="white"/>
<path fill-rule="evenodd" clip-rule="evenodd" d="M130.47 62.4217C128.189 62.4217 126.132 61.0296 125.26 58.8949C124.387 56.7602 124.871 54.3034 126.485 52.6706C128.099 51.0378 130.525 50.5508 132.632 51.4367C134.738 52.3225 136.11 54.4068 136.108 56.7171C136.105 59.8687 133.581 62.4217 130.47 62.4217ZM130.469 52.4269C128.133 52.4269 126.24 54.3445 126.24 56.71C126.24 59.0755 128.133 60.9932 130.469 60.9932C132.804 60.9932 134.697 59.0755 134.697 56.71C134.697 55.5741 134.252 54.4847 133.459 53.6814C132.666 52.8782 131.59 52.4269 130.469 52.4269Z" fill="white"/>
<circle cx="59.3311" cy="46.5" r="4.5" fill="white"/>
<circle cx="86.3311" cy="70.5" r="2.5" fill="white"/>
<path opacity="0.1" d="M155.032 105.492C159.099 105.492 162.395 104.935 162.395 104.248C162.395 103.561 159.099 103.004 155.032 103.004C150.966 103.004 147.67 103.561 147.67 104.248C147.67 104.935 150.966 105.492 155.032 105.492Z" fill="#24272C"/>
<path opacity="0.1" d="M128.193 125.382C132.26 125.382 135.556 124.825 135.556 124.138C135.556 123.451 132.26 122.894 128.193 122.894C124.127 122.894 120.831 123.451 120.831 124.138C120.831 124.825 124.127 125.382 128.193 125.382Z" fill="#24272C"/>
<path opacity="0.1" d="M165.193 124.488C169.26 124.488 172.556 123.931 172.556 123.244C172.556 122.557 169.26 122 165.193 122C161.127 122 157.831 122.557 157.831 123.244C157.831 123.931 161.127 124.488 165.193 124.488Z" fill="#24272C"/>
<path d="M172.824 122.967C178.895 122.967 183.817 122.134 183.817 121.107C183.817 120.081 178.895 119.248 172.824 119.248C166.753 119.248 161.831 120.081 161.831 121.107C161.831 122.134 166.753 122.967 172.824 122.967Z" fill="#595959"/>
<path d="M177.382 118.064C177.884 117.656 178.249 117.105 178.429 116.484C178.566 115.855 178.298 115.103 177.699 114.873C177.026 114.616 176.307 115.081 175.761 115.551C175.214 116.022 174.593 116.56 173.88 116.462C174.246 116.129 174.52 115.707 174.675 115.237C174.83 114.767 174.861 114.265 174.765 113.779C174.734 113.578 174.649 113.389 174.519 113.232C174.145 112.833 173.47 113.005 173.021 113.32C171.6 114.321 171.203 116.251 171.195 117.99C171.053 117.364 171.173 116.711 171.17 116.076C171.168 115.442 170.99 114.709 170.446 114.375C170.112 114.189 169.735 114.095 169.352 114.102C168.712 114.08 167.999 114.143 167.564 114.611C167.017 115.19 167.162 116.166 167.633 116.798C168.103 117.43 168.822 117.837 169.483 118.28C170.013 118.596 170.465 119.027 170.807 119.541C170.846 119.612 170.878 119.687 170.902 119.765H174.91C175.808 119.313 176.639 118.741 177.382 118.064Z" fill="#595959"/>
</svg>
