<svg width="230" height="178" viewBox="0 0 230 178" fill="none" xmlns="http://www.w3.org/2000/svg">
<path opacity="0.5" d="M148.337 9.01316C139.952 5.1968 123.899 -0.459158 103.931 1.772C78.3114 4.63402 58.1147 18.9772 46.7646 32.9411C9.10356 79.2806 33.4336 164.257 68.909 175.562C75.3455 177.613 81.553 177.05 89.1916 176.356C113.486 174.149 120.707 162.333 146.501 154.42C169.976 147.219 172.618 154.361 183.053 147.608C205.692 132.96 206.834 90.577 195.979 61.3945C191.811 50.1862 179.022 22.9822 148.337 9.01316Z" fill="#E7EDF2"/>
<ellipse cx="115" cy="159.467" rx="115" ry="3.06509" fill="#E2E5E7"/>
<path d="M47.9173 125.311C47.9173 125.311 46.627 129.27 46.7275 143.059C46.7372 148.427 46.9585 151.397 47.6384 154.915C47.6384 154.915 48.2767 157.642 51.0877 157.929C51.9637 158.09 53.3451 158.227 55.5161 158.227C55.5161 158.227 60.3854 158.524 61.6393 157.113C62.0527 156.757 62.3218 156.334 62.498 155.942C62.9189 155.176 63.2252 153.105 63.2252 153.105C64.2211 148.538 64.7743 135.952 64.7743 135.952L49.6483 129.922L47.9173 125.311Z" fill="#595959"/>
<path d="M157.629 125.311L155.898 129.922L140.772 135.952C140.772 135.952 141.325 148.538 142.321 153.105C142.321 153.105 142.627 155.176 143.048 155.942C143.225 156.334 143.494 156.757 143.907 157.113C145.161 158.524 150.03 158.227 150.03 158.227C152.201 158.227 153.583 158.09 154.459 157.929C157.27 157.642 157.908 154.915 157.908 154.915C158.587 151.397 158.809 148.427 158.819 143.059C158.919 129.27 157.629 125.311 157.629 125.311Z" fill="#595959"/>
<path d="M100.442 63.5188L103.117 63.4985C106.48 63.5207 128.553 63.7426 135.361 65.7983L135.616 65.766C136.317 65.7003 138.318 65.6724 139.704 67.2435L139.861 67.432C139.861 67.432 144.111 74.3043 148.075 86.9588L148.616 88.7003C148.818 89.321 149.17 90.357 149.65 91.5976C150.569 91.4915 152.357 91.5781 152.357 91.5781C151.672 90.3089 151.49 88.1891 151.49 88.1891C151.295 86.4267 152.525 86.163 152.893 86.1236L152.996 86.1166C155.443 85.9489 157.726 86.3132 158.172 86.3904L158.25 86.4044C161.814 86.9225 162.308 89.7916 162.308 89.7916C162.582 92.4718 161.402 93.5548 161.403 93.5544C160.394 95.2983 154.125 95.7544 151.523 95.8692C152.278 97.3728 153.146 98.862 154.104 100.097L154.468 100.548C154.468 100.548 158.994 104.321 158.767 110.264L158.746 110.646C158.746 110.646 158.746 111.24 158.768 112.362L158.82 114.433C158.82 114.433 159.41 122.526 158.082 127.279L157.722 127.322C157.973 128.763 157.471 131.029 157.418 133.111C157.347 135.896 158.265 138.342 158.265 138.342C158.026 139.871 157.106 140.284 156.435 140.882L156.319 140.99C154.948 142.33 153.647 142.797 153.647 142.797C152.926 142.848 151.547 142.754 150.601 142.797L148.906 142.868C138.642 143.261 119.86 143.4 109.696 143.445L96.7382 143.471C85.4621 143.467 61.5398 143.392 52.5395 142.842L51.8518 142.797C51.8518 142.797 48.164 143.224 47.2867 138.647L47.1682 137.903C46.9305 136.218 46.1908 130.119 47.4846 127.286L47.4168 127.279C46.0889 122.526 46.6789 114.433 46.6789 114.433L46.73 112.409L46.7528 110.646C46.3102 104.483 51.0312 100.548 51.0312 100.548C52.1333 99.235 53.1257 97.563 53.9728 95.8731L53.2366 95.8368C50.4511 95.6819 45.2887 95.1959 44.1221 93.7029L44.0219 93.5553C44.0219 93.5553 42.9285 92.5514 43.0921 90.0834L43.1221 89.7649C43.1814 89.4807 43.777 87.0472 46.8767 86.4549L47.4783 86.3539C48.1628 86.2467 49.9194 86.0138 51.8678 86.0873L52.5312 86.124C52.8838 86.1616 54.0244 86.4043 53.9523 87.968L53.9166 88.3663C53.8564 88.901 53.634 90.5297 53.0677 91.5786L53.6903 91.5565C54.32 91.54 55.2789 91.5314 55.8456 91.6066L56.1256 90.8684C56.7404 89.2147 57.0804 88.0737 57.0804 88.0737C61.1379 74.7085 65.6376 67.432 65.6376 67.432C67.3341 65.2788 70.1377 65.7983 70.1377 65.7983C76.1101 63.9949 93.8297 63.6028 100.442 63.5188Z" fill="#DEDEDE"/>
<g opacity="0.15">
<path d="M57.0808 104.351C57.0565 104 56.5023 95.7226 57.8337 92.3724C57.8421 92.3483 58.8854 89.6846 61.6902 90.156C62.217 90.2442 62.444 90.2277 62.5352 90.2094C62.4179 90.0143 61.9009 89.5933 61.3388 89.2427C61.0595 89.1545 58.1559 88.8952 56.0787 91.12L56.3368 90.3711C58.6052 88.1685 61.4742 88.8996 61.5043 88.9108L61.5486 88.8493C62.6277 89.5175 63.1088 90.0343 62.9783 90.3845C62.8694 90.6781 62.475 90.7382 61.6177 90.5952C59.1695 90.1805 58.2546 92.5109 58.2458 92.5345C56.9507 95.793 57.5168 104.234 57.5226 104.319L57.0808 104.351Z" fill="#E95A2F" style="mix-blend-mode:luminosity"/>
</g>
<g opacity="0.15">
<path d="M46.7579 113.48L46.7765 112.514C48.9414 109.078 52.5907 108.599 52.6204 108.605L52.724 109.162C52.6917 109.159 48.5536 109.797 46.7579 113.48Z" fill="#E95A2F" style="mix-blend-mode:luminosity"/>
</g>
<path fill-rule="evenodd" clip-rule="evenodd" d="M65.7252 110.814C65.7252 112.313 66.9371 113.533 68.427 113.533C69.9164 113.533 71.1283 112.313 71.1287 110.814C71.1287 109.314 69.9164 108.094 68.427 108.094C66.9371 108.094 65.7252 109.314 65.7252 110.814ZM66.0572 110.814C66.0572 109.499 67.1203 108.429 68.4269 108.429C69.7335 108.429 70.7963 109.499 70.7967 110.814C70.7967 112.13 69.7335 113.2 68.4269 113.2C67.1203 113.2 66.0572 112.13 66.0572 110.814Z" fill="white"/>
<path d="M85.7576 130.355C85.7576 132.461 85.4142 134.163 87.2391 134.163H117.651C119.477 134.163 119.129 132.461 119.129 130.355C119.129 128.25 119.477 126.545 117.651 126.545H87.2391C85.4142 126.545 85.7576 128.25 85.7576 130.355Z" fill="#F9F9F9"/>
<path fill-rule="evenodd" clip-rule="evenodd" d="M53.1559 112.348L53.398 112.501L53.4104 112.214C53.4126 112.162 53.6392 107.081 54.3624 104.605L54.4797 104.206L54.1208 104.414C54.0181 104.473 51.6071 105.895 51.4567 108.175C51.4412 108.291 51.0977 111.043 53.1559 112.348ZM51.7869 108.208C51.8926 106.606 53.2628 105.425 53.9277 104.943C53.3729 107.197 53.1491 110.823 53.0929 111.896C51.4852 110.645 51.7825 108.244 51.7869 108.208Z" fill="white"/>
<path opacity="0.3" d="M68.4184 70.1726C68.4118 70.0653 68.3188 67.7361 70.0964 65.8512L70.7541 65.6489C68.8924 67.574 68.8637 70.1214 68.8654 70.1459L68.4184 70.1726Z" fill="#9D9D9D"/>
<g opacity="0.15">
<path d="M148.418 104.352L147.977 104.32C147.983 104.236 148.548 95.7942 147.255 92.5389C147.217 92.44 146.324 90.1897 143.881 90.5969C143.025 90.7404 142.63 90.6798 142.521 90.3862C142.39 90.036 142.871 89.5192 143.95 88.851L143.995 88.83C144.024 88.8193 147.553 88.131 149.083 90.1367L149.269 90.6784C147.192 88.4531 144.44 89.1561 144.16 89.2443C143.598 89.5954 143.081 90.016 142.964 90.2111C143.055 90.2294 143.282 90.2458 143.809 90.1576C146.608 89.685 147.656 92.35 147.667 92.3767C148.996 95.7234 148.442 104 148.418 104.352Z" fill="#E95A2F" style="mix-blend-mode:luminosity"/>
</g>
<g opacity="0.15">
<path d="M158.753 113.269C156.843 109.496 152.795 109.169 152.775 109.162L152.767 108.716C152.767 108.716 157.188 109.203 158.751 112.626L158.753 113.269Z" fill="#E95A2F" style="mix-blend-mode:luminosity"/>
</g>
<path fill-rule="evenodd" clip-rule="evenodd" d="M140.899 109.209C140.899 111.594 142.827 113.533 145.196 113.533C147.566 113.533 149.493 111.593 149.493 109.209C149.493 106.823 147.566 104.883 145.196 104.883C142.827 104.883 140.899 106.823 140.899 109.209ZM141.231 109.21C141.231 107.009 143.01 105.218 145.195 105.218C147.382 105.218 149.161 107.008 149.161 109.21C149.161 111.41 147.382 113.2 145.195 113.2C143.01 113.2 141.231 111.41 141.231 109.21Z" fill="white"/>
<path fill-rule="evenodd" clip-rule="evenodd" d="M134.37 110.814C134.37 112.313 135.582 113.533 137.072 113.533C138.562 113.533 139.774 112.313 139.774 110.814C139.774 109.314 138.562 108.094 137.072 108.094C135.582 108.094 134.37 109.314 134.37 110.814ZM134.701 110.814C134.701 109.499 135.765 108.429 137.071 108.429C138.378 108.429 139.441 109.499 139.441 110.814C139.441 112.13 138.378 113.2 137.071 113.2C135.764 113.2 134.701 112.13 134.701 110.814Z" fill="white"/>
<path fill-rule="evenodd" clip-rule="evenodd" d="M152.089 112.214L152.101 112.501L152.344 112.348C154.402 111.044 154.058 108.291 154.044 108.186C153.892 105.895 151.481 104.473 151.379 104.414L151.019 104.206L151.137 104.605C151.859 107.081 152.087 112.162 152.089 112.214ZM152.404 111.896C152.348 110.822 152.124 107.197 151.569 104.943C152.235 105.426 153.604 106.61 153.711 108.219C153.715 108.244 154.015 110.643 152.404 111.896Z" fill="white"/>
<g opacity="0.15">
<path d="M137.081 70.1719L136.631 70.1448C136.632 70.1203 136.612 67.5733 134.824 65.6665L135.386 65.8358C137.176 67.7212 137.087 70.0646 137.081 70.1719Z" fill="#E95A2F" style="mix-blend-mode:luminosity"/>
</g>
<g opacity="0.15">
<path d="M80.3547 111.707C74.9154 111.707 71.3993 109.825 71.3599 109.804L71.571 109.413C71.6139 109.436 75.9489 111.752 82.4377 111.168L82.4766 111.612C81.7415 111.678 81.0333 111.707 80.3547 111.707Z" fill="#E95A2F" style="mix-blend-mode:luminosity"/>
</g>
<g opacity="0.15">
<path d="M125.662 111.632C124.984 111.632 124.275 111.603 123.54 111.537L123.579 111.093C130.066 111.676 134.403 109.361 134.446 109.337L134.657 109.729C134.617 109.75 131.1 111.632 125.662 111.632Z" fill="#E95A2F" style="mix-blend-mode:luminosity"/>
</g>
<path d="M144.95 87.9618C143.106 79.4232 138.348 70.4016 138.348 70.4016C137.463 68.9168 134.66 68.694 134.66 68.694C103.333 65.501 70.6535 68.694 70.6535 68.694C70.6535 68.694 67.8504 68.9168 66.9651 70.4016C66.9651 70.4016 62.207 79.4232 60.3631 87.9618C60.3631 87.9618 59.3667 90.7467 62.7603 90.9695C62.7603 90.9695 80.083 91.3406 102.644 91.415C102.648 91.415 102.653 91.415 102.656 91.415C102.661 91.415 102.665 91.415 102.669 91.415C125.23 91.3406 142.553 90.9695 142.553 90.9695C145.947 90.7467 144.95 87.9618 144.95 87.9618Z" fill="#595959"/>
<path d="M126.116 120.486C112.144 121.286 90.9713 121.127 79.5752 120.474C79.5752 120.474 76.4702 120.075 77.5569 115.876C77.5569 115.876 78.3337 109.677 84.0771 108.478L121.614 108.49C127.358 109.689 128.134 115.888 128.134 115.888C129.221 120.087 126.116 120.486 126.116 120.486Z" fill="#595959"/>
<g opacity="0.4">
<path d="M87.0556 111.964C86.7969 111.964 86.5876 112.164 86.5876 112.413V117.64C86.5876 117.889 86.7969 118.09 87.0556 118.09C87.3142 118.09 87.5235 117.889 87.5235 117.64V112.413C87.5235 112.164 87.3142 111.964 87.0556 111.964Z" fill="#87888A"/>
<path d="M91.0572 111.641C90.7985 111.641 90.5892 111.863 90.5892 112.137V117.913C90.5892 118.188 90.7985 118.409 91.0572 118.409C91.3158 118.409 91.5251 118.188 91.5251 117.913V112.137C91.5251 111.863 91.3158 111.641 91.0572 111.641Z" fill="#87888A"/>
<path d="M95.0574 111.492C94.7988 111.492 94.5895 111.724 94.5895 112.01V118.042C94.5895 118.328 94.7988 118.56 95.0574 118.56C95.3161 118.56 95.5254 118.328 95.5254 118.042V112.01C95.5254 111.723 95.3161 111.492 95.0574 111.492Z" fill="#87888A"/>
<path d="M99.0577 111.492C98.799 111.492 98.5897 111.724 98.5897 112.01V118.042C98.5897 118.328 98.799 118.56 99.0577 118.56C99.3163 118.56 99.5256 118.328 99.5256 118.042V112.01C99.5256 111.723 99.3163 111.492 99.0577 111.492Z" fill="#87888A"/>
<path d="M103.058 111.492C102.799 111.492 102.59 111.724 102.59 112.01V118.042C102.59 118.328 102.799 118.56 103.058 118.56C103.316 118.56 103.526 118.328 103.526 118.042V112.01C103.526 111.723 103.316 111.492 103.058 111.492Z" fill="#87888A"/>
<path d="M107.059 111.492C106.8 111.492 106.591 111.724 106.591 112.01V118.042C106.591 118.328 106.8 118.56 107.059 118.56C107.318 118.56 107.527 118.328 107.527 118.042V112.01C107.527 111.723 107.318 111.492 107.059 111.492Z" fill="#87888A"/>
<path d="M111.059 111.492C110.8 111.492 110.591 111.724 110.591 112.01V118.042C110.591 118.328 110.8 118.56 111.059 118.56C111.318 118.56 111.527 118.328 111.527 118.042V112.01C111.527 111.723 111.318 111.492 111.059 111.492Z" fill="#87888A"/>
<path d="M115.06 111.641C114.802 111.641 114.592 111.863 114.592 112.137V117.913C114.592 118.188 114.802 118.409 115.06 118.409C115.319 118.409 115.528 118.188 115.528 117.913V112.137C115.528 111.863 115.319 111.641 115.06 111.641Z" fill="#87888A"/>
<path d="M119.06 111.963C118.802 111.963 118.593 112.164 118.593 112.413V117.64C118.593 117.889 118.802 118.089 119.06 118.089C119.319 118.089 119.528 117.889 119.528 117.64V112.413C119.528 112.164 119.319 111.963 119.06 111.963Z" fill="#87888A"/>
</g>
<path fill-rule="evenodd" clip-rule="evenodd" d="M111.348 69.0062L107.796 68.9263C107.813 69.0194 107.825 69.1147 107.825 69.2132C107.825 70.0743 107.131 70.7725 106.276 70.7725H98.7512L98.5928 70.7644C97.8116 70.6846 97.202 70.0205 97.202 69.2132C97.202 69.1147 97.2136 69.0194 97.2308 68.9263C90.0525 69.0693 77.4883 69.4292 71.9118 70.253L71.8771 70.2581C71.5473 70.3099 68.9543 70.7874 67.7808 73.1488C67.7808 73.1488 64.3877 80.7225 63.1333 86.6624C63.1333 86.6624 62.0268 89.2615 66.6743 89.6326C66.6743 89.6326 75.1131 89.2304 87.6612 89.0477L91.9902 88.9958L91.1797 88.9331C90.0488 88.838 89.3537 88.7488 89.2084 88.6984L88.1996 88.6324L86.7212 88.5488C77.4957 88.0759 70.9451 88.6468 70.5116 88.6861L69.5978 88.6658L68.7722 88.6316C67.6103 88.5714 67.0019 88.4813 66.6927 88.3933L66.4432 88.3162C66.3608 88.2885 66.2926 88.2584 66.2374 88.2275C66.1036 87.9445 66.469 87.8717 66.6601 87.8531L66.7681 87.8466L67.6255 87.726L68.5289 87.6078C73.5952 86.9695 77.7394 86.8618 79.5094 86.8481L80.4344 86.8495L80.8971 86.8694C83.2763 86.9866 86.6103 87.3635 89.6246 87.7524L90.7054 87.8928L90.6845 87.8088C90.6707 87.6044 90.9745 87.5512 91.1413 87.5373L91.2471 87.5325L92.0893 87.4251L92.917 87.3272C99.0664 86.6272 103.871 86.6902 104.771 86.7098L105.417 86.7416C107.793 86.8917 111.107 87.3099 114.103 87.7363L115.364 87.9188L117.23 87.8664L118.53 87.8395C125.458 87.7187 127.58 88.0673 127.798 88.1071L127.985 88.1606C128.67 88.4049 128.84 89.005 128.881 89.2946C134.801 89.4634 138.352 89.6326 138.352 89.6326L138.647 89.6053C142.952 89.1498 141.893 86.6624 141.893 86.6624L141.823 86.3369C140.565 80.6676 137.485 73.6877 137.259 73.1784L137.119 72.9112C135.94 70.832 133.64 70.3422 133.191 70.265L132.684 70.1921C127.801 69.5315 118.373 69.1827 111.348 69.0062ZM105.239 88.237L103.914 88.2137C104.199 88.4369 104.329 88.7359 104.387 88.9601C107.482 88.9564 110.457 88.971 113.269 88.9983L116.793 89.0398L116.417 89.0083C115.019 88.8876 114.091 88.7715 113.772 88.702L113.677 88.6768C110.584 88.4226 107.734 88.2927 105.239 88.237Z" fill="#BCBCBC"/>
<path d="M73.9438 113.289C73.9438 113.289 74.632 108.235 65.4278 105.423C65.4278 105.423 55.41 101.509 52.2586 105.136C52.2586 105.136 48.4614 109.332 52.8132 112.954C52.8132 112.954 56.9278 114.739 60.4674 114.646C60.4674 114.646 63.1319 113.287 65.8098 113.737C65.8098 113.737 73.9654 116.102 73.9438 113.289Z" fill="url(#paint0_linear)"/>
<path d="M73.9447 113.289C73.9447 113.289 74.633 108.235 65.4287 105.423C65.4287 105.423 55.411 101.509 52.2595 105.136C52.2595 105.136 61.8807 106.945 73.9447 113.289Z" fill="white"/>
<path opacity="0.15" fill-rule="evenodd" clip-rule="evenodd" d="M64.433 109.21C64.433 111.506 62.5833 113.367 60.3025 113.367C58.0208 113.367 56.1711 111.506 56.1711 109.21C56.1711 106.913 58.0208 105.051 60.3025 105.051C62.5833 105.051 64.433 106.913 64.433 109.21Z" fill="url(#paint1_radial)"/>
<path opacity="0.15" fill-rule="evenodd" clip-rule="evenodd" d="M70.9621 110.814C70.9621 112.223 69.8268 113.366 68.4264 113.366C67.0259 113.366 65.8906 112.223 65.8906 110.814C65.8906 109.404 67.0259 108.261 68.4264 108.261C69.8268 108.261 70.9621 109.404 70.9621 110.814Z" fill="url(#paint2_radial)"/>
<path d="M131.555 113.289C131.555 113.289 130.867 108.235 140.071 105.423C140.071 105.423 150.089 101.509 153.241 105.136C153.241 105.136 157.038 109.332 152.686 112.954C152.686 112.954 148.571 114.739 145.032 114.646C145.032 114.646 142.368 113.287 139.689 113.737C139.689 113.737 131.534 116.102 131.555 113.289Z" fill="url(#paint3_linear)"/>
<path d="M131.558 113.474C131.558 113.474 130.87 108.42 140.074 105.608C140.074 105.608 150.092 101.693 153.244 105.321C153.244 105.321 143.622 107.129 131.558 113.474Z" fill="white"/>
<path opacity="0.15" fill-rule="evenodd" clip-rule="evenodd" d="M141.065 109.21C141.065 111.506 142.915 113.367 145.195 113.367C147.477 113.367 149.327 111.506 149.327 109.21C149.327 106.913 147.477 105.051 145.195 105.051C142.915 105.051 141.065 106.913 141.065 109.21Z" fill="url(#paint4_radial)"/>
<path opacity="0.15" fill-rule="evenodd" clip-rule="evenodd" d="M134.536 110.814C134.536 112.223 135.671 113.366 137.071 113.366C138.472 113.366 139.607 112.223 139.607 110.814C139.607 109.404 138.472 108.261 137.071 108.261C135.671 108.261 134.536 109.404 134.536 110.814Z" fill="url(#paint5_radial)"/>
<path fill-rule="evenodd" clip-rule="evenodd" d="M96.8075 30.4217C94.5264 30.4217 92.4701 29.0296 91.5977 26.8949C90.7254 24.7602 91.2089 22.3034 92.8227 20.6706C94.4365 19.0378 96.8627 18.5508 98.9694 19.4367C101.076 20.3225 102.448 22.4068 102.446 24.7171C102.442 27.8687 99.919 30.4217 96.8075 30.4217ZM96.8065 20.4269C94.471 20.4269 92.5777 22.3445 92.5777 24.71C92.5777 27.0755 94.471 28.9932 96.8065 28.9932C99.142 28.9932 101.035 27.0755 101.035 24.71C101.035 23.5741 100.59 22.4847 99.7968 21.6814C99.0037 20.8782 97.9281 20.4269 96.8065 20.4269Z" fill="white"/>
<circle cx="128.669" cy="50.5" r="2.5" fill="white"/>
<path d="M22.2632 76.6249C22.25 76.6249 22.235 76.6249 22.2218 76.6232C22.0311 76.5999 21.8951 76.4265 21.9167 76.2347C23.2349 65.1223 26.9938 54.4485 33.0922 44.5134C39.073 34.77 47.0003 26.2123 56.6554 19.077C56.8096 18.9619 57.0284 18.9953 57.1428 19.152C57.2572 19.3071 57.2241 19.5272 57.0682 19.6423C37.7448 33.9179 25.1864 54.5752 22.6081 76.3164C22.5865 76.4932 22.4373 76.6249 22.2632 76.6249Z" fill="#24272C" fill-opacity="0.97"/>
<path d="M26.5383 91.9262C26.3609 91.9262 26.2084 91.7912 26.1918 91.6094C25.124 80.3069 26.802 69.1546 31.1793 58.4591C35.4091 48.1304 41.9088 38.7923 50.5011 30.7065C50.642 30.5747 50.8625 30.5814 50.9935 30.7231C51.1245 30.8649 51.1179 31.0867 50.9769 31.2184C33.5902 47.5818 24.8089 69.5698 26.8865 91.5427C26.9048 91.7345 26.7638 91.9062 26.5732 91.9246C26.5615 91.9246 26.5499 91.9262 26.5383 91.9262Z" fill="#24272C" fill-opacity="0.97"/>
<path d="M55.7142 29.8436C55.6346 29.8436 55.5583 29.8169 55.4953 29.7652L53.0596 27.7775C52.9601 27.6958 52.912 27.5657 52.9369 27.4373C52.9618 27.3106 53.0546 27.2072 53.1773 27.1689L56.2282 26.2434C56.3426 26.2084 56.4686 26.235 56.5582 26.3151C56.6477 26.3951 56.6908 26.5168 56.6709 26.6352C56.4255 28.106 56.0541 29.5634 56.0508 29.5784C56.0209 29.6935 55.9347 29.7869 55.822 29.8235C55.7888 29.8386 55.7507 29.8436 55.7142 29.8436ZM54.008 27.6508L55.5069 28.8731C55.6097 28.4378 55.7556 27.7825 55.8866 27.0805L54.008 27.6508Z" fill="#24272C" fill-opacity="0.97"/>
<path d="M177.939 3.41721C177.916 3.41721 177.893 3.41555 177.87 3.41054L176.106 3.05203C175.917 3.01367 175.796 2.82858 175.834 2.64015C175.872 2.45005 176.056 2.32832 176.245 2.36668L178.009 2.72519C178.198 2.76355 178.319 2.94864 178.281 3.13707C178.248 3.30216 178.102 3.41721 177.939 3.41721Z" fill="black"/>
<path d="M182.052 4.25193C182.028 4.25193 182.005 4.25027 181.982 4.24526L180.218 3.88675C180.029 3.84839 179.908 3.6633 179.946 3.47487C179.984 3.28477 180.168 3.16304 180.357 3.20139L182.121 3.55991C182.31 3.59826 182.431 3.78336 182.393 3.97179C182.358 4.13854 182.214 4.25193 182.052 4.25193Z" fill="black"/>
<path d="M178.518 6.61073C178.494 6.61073 178.471 6.60907 178.448 6.60406C178.259 6.56571 178.138 6.38062 178.176 6.19219L178.533 4.41627C178.571 4.22618 178.755 4.10445 178.944 4.1428C179.133 4.18115 179.254 4.36625 179.215 4.55468L178.859 6.32892C178.826 6.49568 178.68 6.61073 178.518 6.61073Z" fill="black"/>
<path d="M179.349 2.47499C179.326 2.47499 179.303 2.47333 179.279 2.46832C179.09 2.42997 178.969 2.24488 179.008 2.05645L179.364 0.280532C179.402 0.0904347 179.586 -0.0312951 179.775 0.00705792C179.964 0.045411 180.085 0.230506 180.047 0.418937L179.69 2.19318C179.656 2.35994 179.511 2.47499 179.349 2.47499Z" fill="black"/>
<path d="M206.696 123.625C206.692 123.625 206.691 123.625 206.689 123.625C206.497 123.621 206.344 123.461 206.347 123.268C206.591 111.283 203.325 101.285 196.641 93.5492C196.515 93.4025 196.53 93.1824 196.676 93.0556C196.82 92.9289 197.041 92.9439 197.167 93.0906C203.968 100.961 207.291 111.12 207.044 123.283C207.039 123.473 206.885 123.625 206.696 123.625Z" fill="#24272C"/>
<path d="M203.125 123.309C202.936 123.309 202.781 123.156 202.777 122.964C202.588 110.98 198.965 101.106 192.008 93.619C191.877 93.4772 191.884 93.2554 192.025 93.1237C192.165 92.992 192.386 92.9986 192.517 93.1404C199.597 100.759 203.283 110.789 203.474 122.954C203.477 123.147 203.323 123.306 203.13 123.309C203.129 123.309 203.127 123.309 203.125 123.309Z" fill="#24272C"/>
<defs>
<linearGradient id="paint0_linear" x1="52.659" y1="103.595" x2="52.659" y2="112.823" gradientUnits="userSpaceOnUse">
<stop stop-color="white"/>
<stop offset="0.3115" stop-color="#FDFCF8"/>
<stop offset="0.6407" stop-color="#F6F5F0"/>
<stop offset="1" stop-color="#F7F6F2"/>
</linearGradient>
<radialGradient id="paint1_radial" cx="0" cy="0" r="1" gradientUnits="userSpaceOnUse" gradientTransform="translate(60.3021 108.801) rotate(92.6452) scale(6.77348 6.7297)">
<stop stop-opacity="0.01"/>
<stop offset="1" stop-opacity="0.399004"/>
</radialGradient>
<radialGradient id="paint2_radial" cx="0" cy="0" r="1" gradientUnits="userSpaceOnUse" gradientTransform="translate(68.4264 110.563) rotate(92.6452) scale(4.15786 4.13098)">
<stop stop-opacity="0.01"/>
<stop offset="1" stop-opacity="0.399004"/>
</radialGradient>
<linearGradient id="paint3_linear" x1="133.479" y1="103.595" x2="133.479" y2="112.823" gradientUnits="userSpaceOnUse">
<stop stop-color="white"/>
<stop offset="0.3115" stop-color="#FDFCF8"/>
<stop offset="0.6407" stop-color="#F6F5F0"/>
<stop offset="1" stop-color="#F7F6F2"/>
</linearGradient>
<radialGradient id="paint4_radial" cx="0" cy="0" r="1" gradientUnits="userSpaceOnUse" gradientTransform="translate(145.196 108.801) rotate(92.6452) scale(6.77348 6.7297)">
<stop stop-opacity="0.01"/>
<stop offset="1" stop-opacity="0.399004"/>
</radialGradient>
<radialGradient id="paint5_radial" cx="0" cy="0" r="1" gradientUnits="userSpaceOnUse" gradientTransform="translate(137.071 110.563) rotate(92.6452) scale(4.15786 4.13098)">
<stop stop-opacity="0.01"/>
<stop offset="1" stop-opacity="0.399004"/>
</radialGradient>
</defs>
</svg>
