<svg width="24" height="24" viewBox="0 0 24 24" fill="none" xmlns="http://www.w3.org/2000/svg">
<mask id="mask0" mask-type="alpha" maskUnits="userSpaceOnUse" x="1" y="1" width="23" height="23">
<path d="M1.21509 12.3756C1.21509 18.539 6.21229 23.5356 12.3751 23.5356C18.5391 23.5356 23.5357 18.539 23.5357 12.3756C23.5357 6.21216 18.5391 1.21558 12.3751 1.21558C6.21229 1.21558 1.21509 6.21216 1.21509 12.3756Z" fill="white"/>
</mask>
<g mask="url(#mask0)">
<path d="M9.02194 5.59309C9.31716 4.77309 10.237 4.29956 11.1328 4.52688C12.0674 4.76404 12.6221 5.67535 12.3719 6.56118C12.2133 7.12339 11.7688 7.54103 11.2266 7.71076L11.2259 12.0945C11.8139 11.4416 12.8076 11.2368 13.6362 11.6257L13.7524 11.6847L15.4755 12.6283L18.1273 10.7463C18.2805 10.6376 18.4807 10.6138 18.6552 10.679L18.7283 10.7124L22.7287 12.9033C22.7313 12.9047 22.7339 12.9061 22.7365 12.9075L22.743 12.911L24.5743 13.9135C24.7622 14.0164 24.8659 14.2132 24.845 14.4134L24.8313 14.4885L24.0786 17.3386L24.546 17.5948C25.4671 18.0978 25.8073 19.1903 25.3433 20.0813L25.2811 20.1915L23.8406 22.5588C23.7022 22.7862 23.4096 22.8766 23.1604 22.7798L23.0936 22.7487L22.303 22.316C21.5353 23.1048 20.2687 23.3141 19.2468 22.7553C18.2257 22.1965 17.7837 21.0508 18.1201 20.0259L15.247 18.4513C14.4794 19.2407 13.2123 19.4504 12.1908 18.8913C11.1697 18.3325 10.7272 17.1867 11.0635 16.1619L9.77299 15.4546C9.53328 15.3234 9.43802 15.046 9.54009 14.8096L9.57285 14.7463L10.1325 13.8257L10.1327 7.71067C9.82039 7.61375 9.55461 7.43996 9.3527 7.2177L0.735247 11.0742C1.13603 11.42 1.38762 11.9186 1.38762 12.4727L1.38719 13.7794L5.45831 13.78C6.52412 13.78 7.3963 14.5698 7.45944 15.5656L7.4631 15.6813V16.992L7.54257 16.9922C7.79421 16.9922 8.00615 17.1534 8.0698 17.3729L8.08434 17.4404L8.08933 17.5107V18.8824C8.08933 19.1449 7.88364 19.3619 7.61676 19.3962L7.54257 19.401L5.68296 19.4014C5.53071 20.6879 4.38007 21.6874 2.983 21.6874C1.58647 21.6874 0.435996 20.6878 0.283768 19.4014L-2.43769 19.401C-2.6601 19.401 -2.85728 19.2737 -2.94155 19.0839L-2.96768 19.0099L-4.19316 14.426C-4.27493 14.1202 -4.0529 13.8225 -3.73311 13.7842L-3.66317 13.78L-2.59908 13.7794L-2.59865 12.4727C-2.59865 11.4717 -1.77775 10.652 -0.739413 10.5867L8.93188 6.25947C8.91708 6.07673 8.93418 5.88853 8.98718 5.70146L9.02194 5.59309ZM21.1757 19.5874C20.5148 19.2257 19.6696 19.4404 19.2878 20.067L19.2351 20.1622C18.9302 20.7727 19.166 21.5137 19.7932 21.857C20.4549 22.2189 21.3001 22.0041 21.6819 21.3771C22.0633 20.7503 21.8368 19.9489 21.1757 19.5874ZM12.0109 12.8243L11.9604 12.8982L11.1563 14.2204C11.1537 14.2248 11.151 14.2291 11.1483 14.2334L10.7933 14.8155L11.6114 15.2626C12.3792 14.475 13.6449 14.2666 14.6655 14.8251C15.6867 15.3836 16.1291 16.5285 15.7935 17.5528L18.6683 19.1266C19.4361 18.3394 20.7018 18.1307 21.7221 18.6891C22.7436 19.2477 23.1859 20.3925 22.8499 21.4173L23.1662 21.591L24.334 19.6731C24.5519 19.3152 24.4686 18.8703 24.1587 18.603L24.0831 18.5446L23.9998 18.4933L13.2052 12.5826L13.1163 12.5397C12.7247 12.3755 12.262 12.4943 12.0109 12.8243ZM2.983 17.5716C2.08691 17.5716 1.3602 18.2607 1.3602 19.1106C1.3602 19.9612 2.08683 20.6503 2.983 20.6503C3.87982 20.6503 4.60652 19.9613 4.60652 19.1106C4.60652 18.2606 3.87973 17.5716 2.983 17.5716ZM-2.06297 14.8171L-2.96039 14.8169L-2.01267 18.3637L0.383058 18.3624C0.721142 17.3045 1.75739 16.5346 2.983 16.5346C4.20917 16.5346 5.24567 17.3046 5.58372 18.3625L6.9958 18.3637V18.0291L6.91634 18.0293C6.6647 18.0293 6.45276 17.868 6.38911 17.6486L6.37457 17.5811L6.36958 17.5107V15.6813C6.36958 15.2342 6.01063 14.8659 5.55141 14.8216L5.45831 14.8171L0.851366 14.8165L0.840852 14.8172H-2.05189C-2.05559 14.8172 -2.05928 14.8171 -2.06297 14.8171ZM14.1191 15.7234C13.4579 15.3616 12.6128 15.576 12.2312 16.2029C11.85 16.8293 12.0768 17.6316 12.7374 17.9931C13.3983 18.3548 14.2435 18.1401 14.6253 17.5129C15.0066 16.8868 14.78 16.0849 14.1191 15.7234ZM22.6636 14.0642L21.5227 15.9386L23.0932 16.7991L23.6699 14.6157L22.6636 14.0642ZM18.4931 11.7811L16.5058 13.1915L20.5757 15.42L21.7166 13.5457L18.4931 11.7811ZM-0.605519 11.6195C-1.10226 11.6195 -1.50513 12.0017 -1.50513 12.4727L-1.50527 13.7798H0.293943L0.294089 12.4727C0.294089 12.0312 -0.0599942 11.6677 -0.513556 11.624L-0.605519 11.6195ZM10.8502 5.52871C10.4986 5.43949 10.1373 5.63719 10.0434 5.97005C9.94894 6.30343 10.1575 6.64602 10.5093 6.73529C10.5613 6.74854 10.6135 6.75547 10.6651 6.75657L10.6793 6.75562L10.6893 6.75667C10.9761 6.75271 11.2376 6.5693 11.3156 6.29297C11.4095 5.96025 11.2011 5.61775 10.8502 5.52871Z" fill="black"/>
</g>
<path d="M12.375 0.75C5.95477 0.75 0.75 5.95477 0.75 12.375C0.75 18.7952 5.95477 24 12.375 24C18.7952 24 24 18.7952 24 12.375C24 5.95477 18.7952 0.75 12.375 0.75ZM12.375 1.68C18.2816 1.68 23.07 6.46839 23.07 12.375C23.07 18.2816 18.2816 23.07 12.375 23.07C6.46839 23.07 1.68 18.2816 1.68 12.375C1.68 6.46839 6.46839 1.68 12.375 1.68Z" fill="black"/>
</svg>
