<svg width="22" height="26" viewBox="0 0 22 26" fill="none" xmlns="http://www.w3.org/2000/svg">
<path d="M4.84364 18.1862L3.19556 23.2447L6.5265 22.0177L8.57325 25.0716L9.85495 20.2466" stroke="black" stroke-linecap="round" stroke-linejoin="round"/>
<path d="M17.2688 18.356L18.861 23.2456L15.53 22.0173L13.4845 25.0712L12.1357 19.9953" stroke="black" stroke-linecap="round" stroke-linejoin="round"/>
<path fill-rule="evenodd" clip-rule="evenodd" d="M20.8656 12.6736C20.7414 13.2126 20.1205 13.6262 19.913 14.164C19.7056 14.703 19.8298 15.4059 19.5405 15.8617C19.2498 16.3598 18.5047 16.5262 18.1321 16.9397C17.7595 17.3546 17.6353 18.0985 17.1795 18.4301C16.7237 18.7617 16.0195 18.6785 15.4817 18.9679C14.9837 19.2175 14.6533 19.8807 14.0733 20.0459C13.5343 20.2111 12.8711 19.8807 12.2924 19.9627C11.7124 20.0459 11.1734 20.5427 10.5934 20.5017C10.0134 20.4607 9.51658 19.9627 8.97881 19.8397C8.39882 19.7143 7.73561 20.0037 7.19784 19.7553C6.65883 19.5479 6.36945 18.8859 5.91365 18.5543C5.41687 18.2649 4.71268 18.2649 4.25688 17.8911C3.84206 17.5185 3.80108 16.7733 3.42849 16.3188C3.09689 15.8617 2.39269 15.6543 2.10332 15.1588C1.85368 14.662 2.06109 13.9566 1.89591 13.4188C1.72949 12.8798 1.14949 12.4252 1.06752 11.8862C0.984311 11.3062 1.44011 10.7275 1.44011 10.1884C1.4811 9.60721 1.06752 8.98623 1.19172 8.44846C1.31591 7.90945 1.9369 7.49588 2.1443 6.95686C2.35171 6.4191 2.22751 5.71366 2.51689 5.2591C2.80627 4.76232 3.55269 4.5959 3.92528 4.18232C4.29786 3.76751 4.42206 3.02233 4.87786 2.69073C5.33366 2.35912 6.03785 2.44234 6.57562 2.15172C7.07365 1.90457 7.40401 1.24136 7.984 1.07618C8.52302 0.909756 9.18498 1.24136 9.76498 1.15939C10.345 1.07618 10.884 0.579394 11.464 0.620379C12.0427 0.661364 12.5408 1.15939 13.0785 1.28234C13.6585 1.40778 14.3205 1.11716 14.8595 1.3668C15.3985 1.57296 15.6879 2.23617 16.1437 2.56653C16.6405 2.85715 17.3447 2.85715 17.8005 3.22974C18.2153 3.60233 18.2563 4.3475 18.6289 4.8033C18.9605 5.2591 19.6646 5.46527 19.954 5.9633C20.2024 6.46008 19.9963 7.16427 20.1614 7.70328C20.3266 8.24105 20.9066 8.69685 20.9898 9.23462C21.073 9.81462 20.6172 10.3946 20.6172 10.9336C20.5762 11.5124 20.9488 12.1346 20.8656 12.6736Z" stroke="black" stroke-linecap="round" stroke-linejoin="round"/>
<path d="M14.7189 8.06976L9.96025 13.0376L7.26709 10.208" stroke="black" stroke-linecap="round" stroke-linejoin="round"/>
</svg>
